<?xml version="1.0" encoding="UTF-8" standalone="no"?>
<svg
   version="1.1"
   width="198.39999"
   height="78.660004"
   xml:space="preserve"
   id="svg1"
   sodipodi:docname="EVE_online_logo.svg"
   xmlns:inkscape="http://www.inkscape.org/namespaces/inkscape"
   xmlns:sodipodi="http://sodipodi.sourceforge.net/DTD/sodipodi-0.dtd"
   xmlns="http://www.w3.org/2000/svg"
   xmlns:svg="http://www.w3.org/2000/svg"><defs
   id="defs1" /><sodipodi:namedview
   id="namedview1"
   pagecolor="#ffffff"
   bordercolor="#000000"
   borderopacity="0.25"
   inkscape:showpageshadow="2"
   inkscape:pageopacity="0.0"
   inkscape:pagecheckerboard="0"
   inkscape:deskcolor="#d1d1d1"
   inkscape:export-bgcolor="#ffffff00"><inkscape:page
     x="0"
     y="0"
     width="198.39999"
     height="78.660004"
     id="page2"
     margin="0"
     bleed="0" /></sodipodi:namedview>
<path
   d="M 0,0 V 13.88 H 10.97 V 10.31 H 60.69 V 0 Z M 65.84,0 99.22,58.09 132.6,0 h -11.9 c 0,0 -20.2,34.91 -21.48,37.16 C 97.92,34.91 77.75,0 77.75,0 Z m 71.96,0 v 13.88 h 10.9 v -3.57 h 49.7 V 0 Z M 0,19.12 V 29.47 H 60.69 V 19.12 Z m 137.8,0 v 10.35 h 60.6 V 19.12 Z M 0,34.66 V 48.59 H 60.69 V 38.25 H 10.97 v -3.59 z m 137.8,0 v 13.93 h 60.6 V 38.25 H 148.7 V 34.66 Z M 42.19,69.72 c -0.87,0 -1.48,0.17 -1.78,0.47 -0.31,0.3 -0.44,0.84 -0.44,1.65 v 4.72 c 0,0.82 0.13,1.37 0.44,1.66 0.3,0.3 0.91,0.44 1.78,0.44 h 6.53 c 0.87,0 1.47,-0.14 1.78,-0.44 0.3,-0.29 0.47,-0.84 0.47,-1.66 v -4.72 c 0,-0.81 -0.17,-1.35 -0.47,-1.65 -0.31,-0.3 -0.91,-0.47 -1.78,-0.47 z m 22.18,0 v 8.94 h 1.88 v -4.82 c 0,-0.18 -0.02,-0.41 -0.03,-0.65 -0.02,-0.25 -0.04,-0.5 -0.06,-0.78 0.1,0.12 0.22,0.26 0.34,0.37 0.12,0.11 0.25,0.23 0.41,0.38 l 6.56,5.5 h 1.41 v -8.94 h -1.85 v 4.69 c 0,0.11 0.02,0.29 0.03,0.5 0.01,0.2 0.03,0.56 0.06,1.06 -0.13,-0.16 -0.3,-0.31 -0.46,-0.47 -0.17,-0.15 -0.35,-0.32 -0.57,-0.5 l -6.28,-5.28 z m 24.16,0 v 8.94 h 8.78 V 77 h -6.72 v -7.28 z m 20.87,0 v 8.94 h 2.1 v -8.94 z m 15.7,0 v 8.94 h 1.9 v -4.82 c 0,-0.18 0,-0.41 -0.1,-0.65 0,-0.25 0,-0.5 0,-0.78 0.1,0.12 0.2,0.26 0.3,0.37 0.1,0.11 0.3,0.23 0.4,0.38 l 6.6,5.5 h 1.4 v -8.94 h -1.8 v 4.69 c 0,0.11 0,0.29 0,0.5 0,0.2 0,0.56 0,1.06 -0.1,-0.16 -0.2,-0.31 -0.4,-0.47 -0.2,-0.15 -0.4,-0.32 -0.6,-0.5 l -6.3,-5.28 z m 24.2,0 v 8.94 h 9.2 V 77 h -7.2 v -2.22 h 4.1 v -1.53 h -4.1 v -2 h 7.1 V 69.72 Z M 42.03,71.31 h 6.84 V 77 h -6.84 z"
   id="path1" /><path
   style="fill:#ffffff;stroke-width:0.161695"
   d="M 0.08084759,41.636511 V 34.683617 H 5.4976363 10.914425 v 1.859495 1.859495 h 24.820211 24.820211 v 5.093398 5.093399 h -30.237 -30.23699941 z"
   id="path14" /><path
   style="fill:#ffffff;stroke-width:0.161695"
   d="M 0.08084759,24.254278 V 19.16088 h 30.23699941 30.237 v 5.093398 5.093398 h -30.237 -30.23699941 z"
   id="path15" /><path
   style="fill:#ffffff;stroke-width:0.161695"
   d="M 0.08084759,6.952893 V 0.08084759 h 30.23699941 30.237 V 5.174246 10.267644 H 35.734636 10.914425 v 1.778647 1.778647 H 5.4976363 0.08084759 Z"
   id="path16" /><path
   style="fill:#ffffff;stroke-width:0.161695"
   d="M 98.984323,57.456244 C 98.851489,57.24843 91.386507,44.272142 82.395472,28.620048 L 66.048135,0.16169519 l 5.772617,-0.042499 c 3.17494,-0.02337444 5.825996,0.013007 5.891237,0.0808476 0.06524,0.0678406 4.823438,8.27278401 10.573772,18.23320721 5.750335,9.960424 10.566352,18.283082 10.70226,18.494794 0.245481,0.382401 0.252626,0.375481 1.085319,-1.051018 0.46102,-0.789773 5.30504,-9.167003 10.76449,-18.616066 l 9.92628,-17.18011341 h 5.7917 c 3.18544,0 5.7917,0.03678609 5.7917,0.08174688 0,0.073165 -32.955238,57.48484853 -33.073117,57.61703953 -0.02671,0.02995 -0.157237,-0.115576 -0.29007,-0.32339 z"
   id="path17" /><path
   style="fill:#ffffff;stroke-width:0.161695"
   d="M 137.84515,24.254278 V 19.16088 h 30.237 30.237 v 5.093398 5.093398 h -30.237 -30.237 z"
   id="path18" /><path
   style="fill:#ffffff;stroke-width:0.161695"
   d="M 137.84515,6.952893 V 0.08084759 h 30.237 30.237 V 5.174246 10.267644 h -24.82021 -24.82022 v 1.778647 1.778647 h -5.41678 -5.41679 z"
   id="path19" /><path
   style="fill:#ffffff;stroke-width:0.161695"
   d="m 137.84515,41.636511 v -6.952894 h 5.41679 5.41678 v 1.859495 1.859495 h 24.82022 24.82021 v 5.093398 5.093399 h -30.237 -30.237 z"
   id="path20" /><path
   style="fill:#ffffff;stroke-width:0.161695"
   d="m 149.3255,74.218091 v -4.446618 h 4.52747 4.52747 v 0.727628 0.727629 h -3.5573 -3.55729 v 1.051018 1.051019 h 2.02119 2.02119 v 0.727628 0.727629 h -2.02119 -2.02119 v 1.131866 1.131866 h 3.55729 3.5573 v 0.808476 0.808476 h -4.52747 -4.52747 z"
   id="path21" /><path
   style="fill:#ffffff;stroke-width:0.161695"
   d="m 125.23292,74.218091 v -4.446618 h 0.58665 c 0.52277,0 0.94976,0.303538 3.92111,2.787462 1.83395,1.533104 3.49817,2.948672 3.69827,3.145706 l 0.36382,0.358245 v -3.145707 -3.145706 h 0.88932 0.88932 v 4.446618 4.446617 l -0.60635,-0.0013 c -0.54667,-0.0012 -0.93264,-0.272812 -3.92111,-2.759269 -1.82311,-1.516862 -3.51485,-2.948747 -3.75941,-3.181969 l -0.44467,-0.424038 v 3.183307 3.183308 h -0.80847 -0.80848 z"
   id="path22" /><path
   style="fill:#ffffff;stroke-width:0.161695"
   d="m 109.54849,74.218091 v -4.446618 h 0.97017 0.97017 v 4.446618 4.446617 h -0.97017 -0.97017 z"
   id="path23" /><path
   style="fill:#ffffff;stroke-width:0.161695"
   d="m 88.68981,74.218091 v -4.446618 h 0.889323 0.889324 v 3.638142 3.638141 h 3.395599 3.395599 v 0.808476 0.808476 H 92.974732 88.68981 Z"
   id="path24" /><path
   style="fill:#ffffff;stroke-width:0.161695"
   d="m 64.435532,74.218091 v -4.446618 h 0.638476 c 0.588316,0 0.883661,0.205153 3.759413,2.611362 1.716515,1.43625 3.393798,2.869892 3.727294,3.185872 l 0.606357,0.57451 v -3.185872 -3.185872 h 0.808476 0.808476 v 4.446618 4.446617 h -0.575171 c -0.508772,0 -0.961431,-0.324597 -3.921108,-2.811787 -1.840266,-1.546483 -3.48455,-2.965358 -3.653965,-3.153056 -0.169415,-0.187698 -0.351322,-0.341274 -0.404238,-0.341281 -0.05292,-6e-6 -0.0703,1.418869 -0.03864,3.153056 l 0.05757,3.153068 h -0.906473 -0.906473 z"
   id="path25" /><path
   style="fill:#ffffff;stroke-width:0.161695"
   d="m 41.592778,78.522416 c -0.462113,-0.0694 -0.915891,-0.260248 -1.131866,-0.476025 -0.343878,-0.343562 -0.362856,-0.503548 -0.411463,-3.468647 -0.06071,-3.703185 0.06036,-4.294445 0.940869,-4.595026 0.722251,-0.246555 7.910042,-0.280252 8.771117,-0.04112 1.002052,0.278284 1.091701,0.628181 1.091701,4.260854 0,3.384865 -0.07948,3.804625 -0.785882,4.150494 -0.482937,0.236455 -7.141844,0.369618 -8.474476,0.169469 z m 7.320016,-4.385173 V 71.22673 h -3.476447 -3.476446 v 2.910513 2.910513 h 3.476446 3.476447 z"
   id="path26" /></svg>
